<?xml version="1.0" encoding="UTF-8" standalone="no"?>
<svg
   width="191"
   height="99"
   viewBox="0 0 258.48653 99"
   fill="none"
   version="1.1"
   id="svg6"
   sodipodi:docname="logo.svg"
   inkscape:export-filename="logo.svg"
   inkscape:export-xdpi="111.36"
   inkscape:export-ydpi="111.36"
   inkscape:version="1.3 (0e150ed, 2023-07-21)"
   xmlns:inkscape="http://www.inkscape.org/namespaces/inkscape"
   xmlns:sodipodi="http://sodipodi.sourceforge.net/DTD/sodipodi-0.dtd"
   xmlns="http://www.w3.org/2000/svg"
   xmlns:svg="http://www.w3.org/2000/svg">
  <defs
     id="defs6" />
  <sodipodi:namedview
     id="namedview6"
     pagecolor="#ffffff"
     bordercolor="#000000"
     borderopacity="0.25"
     inkscape:showpageshadow="2"
     inkscape:pageopacity="0.0"
     inkscape:pagecheckerboard="0"
     inkscape:deskcolor="#d1d1d1"
     inkscape:zoom="2.4212866"
     inkscape:cx="79.503188"
     inkscape:cy="-32.627282"
     inkscape:window-width="1472"
     inkscape:window-height="693"
     inkscape:window-x="0"
     inkscape:window-y="37"
     inkscape:window-maximized="0"
     inkscape:current-layer="svg6" />
  <path
     d="m 61.634971,32.865194 c 3.089427,0 5.59397,-3.713296 5.59397,-8.293889 0,-4.580593 -2.504543,-8.293891 -5.59397,-8.293891 -3.089541,0 -5.594084,3.713298 -5.594084,8.293891 0,4.580593 2.504543,8.293889 5.594084,8.293889 z"
     stroke="#d74b6e"
     stroke-width="3.84845"
     id="path1" />
  <path
     d="m 36.191764,65.363733 c 0,0 -9.288228,6.27099 -18.576342,-0.606871 C 8.3272174,57.879117 8.8387217,49.713741 10.227077,46.348586 13.815691,37.650117 22.226728,28.014314 23.737159,26.928748 c 3.377507,-2.427481 7.127635,-3.880343 13.721155,-3.64122 5.973504,0.216568 11.588553,3.658106 14.35443,6.87786 6.527904,7.599076 10.839343,17.153511 8.654951,12.946559 0,0 5.277333,8.698469 0.422148,16.58778 -4.855187,7.889308 -14.565561,8.091486 -14.565561,8.091486 0,0 -7.810547,0.809159 -16.04324,-5.866297 -8.232692,-6.675569 -9.076984,-16.1832 -8.232692,-17.599229 0.844405,-1.41603 4.221911,-5.46183 8.865968,-3.43893 4.64417,2.0229 5.277446,4.854959 5.277446,4.854959 0,0 2.110954,-4.045799 4.432927,-4.652668 2.322085,-0.606871 6.12185,-1.618322 8.443821,1.213738 2.322086,2.832061 1.688811,7.080152 -0.633274,11.530416 -2.322086,4.450495 -14.589359,12.549687 -17.098662,13.351141 -0.633274,0.20229 4.855188,-1.82061 4.855188,-1.82061 z"
     stroke="#d74b6e"
     stroke-width="3.84845"
     id="path2" />
  <path
     d="m 44.952223,18.837148 c 3.089428,0 5.59397,-3.713297 5.59397,-8.29389 0,-4.5805935 -2.504542,-8.2938898 -5.59397,-8.2938898 -3.089541,0 -5.594084,3.7132963 -5.594084,8.2938898 0,4.580593 2.504543,8.29389 5.594084,8.29389 z"
     stroke="#d74b6e"
     stroke-width="3.84845"
     id="path3" />
  <path
     d="m 27.238192,19.109701 c 3.089428,0 5.593971,-3.713296 5.593971,-8.293913 0,-4.580593 -2.504543,-8.2938893 -5.593971,-8.2938893 -3.08954,0 -5.594083,3.7132963 -5.594083,8.2938893 0,4.580617 2.504543,8.293913 5.594083,8.293913 z"
     stroke="#d74b6e"
     stroke-width="3.84845"
     id="path4" />
  <path
     d="m 10.550049,32.662904 c 3.089485,0 5.594039,-3.713296 5.594039,-8.293889 0,-4.580596 -2.504554,-8.29389 -5.594039,-8.29389 -3.0894941,0 -5.5940141,3.713294 -5.5940141,8.29389 0,4.580593 2.50452,8.293889 5.5940141,8.293889 z"
     stroke="#d74b6e"
     stroke-width="3.84845"
     id="path5" />
  <path
     d="M 89.451465,54.615119 V 27.491414 h 2.65466 L 102.5324,47.074345 112.88173,27.491414 h 2.65466 v 27.123705 h -2.92398 v -21.19881 l -9.04123,17.005215 h -2.07756 L 92.336965,33.454781 v 21.160338 z m 31.027545,0 2.8855,-5.001534 c 0.76947,-1.359433 1.75691,-2.244319 2.96245,-2.654661 -1.59027,-0.23084 -2.82142,-0.807941 -3.69344,-1.7313 -0.87202,-0.948969 -1.30809,-2.180115 -1.30809,-3.693441 0,-1.718436 0.56422,-3.077866 1.69282,-4.078174 1.1542,-1.025916 2.87264,-1.538933 5.15543,-1.538933 h 8.42565 v 18.698043 h -2.96244 v -7.117568 h -2.73161 c -1.02592,0 -1.89805,0.256449 -2.61618,0.769467 -0.69251,0.513018 -1.25676,1.141335 -1.69282,1.885193 l -2.53924,4.462908 z m 8.27176,-9.387495 h 4.88612 v -7.117568 h -4.88612 c -1.51332,0 -2.62905,0.320652 -3.34717,0.961834 -0.71813,0.615573 -1.07726,1.47485 -1.07726,2.577714 0,1.128591 0.35913,2.013478 1.07726,2.65466 0.71812,0.615573 1.83385,0.92336 3.34717,0.92336 z m 16.19968,16.312695 3.19329,-7.232986 -7.88703,-18.390257 h 3.38566 l 6.1942,15.158495 6.23268,-15.158495 h 3.27025 l -11.1188,25.623243 z m 17.05933,-6.3481 -1.50046,-2.500768 c 1.02676,-0.538625 1.9369,-1.192673 2.7316,-1.962139 0.79593,-0.769467 1.47522,-1.782639 2.03909,-3.039394 0.56508,-1.256756 1.00031,-2.847028 1.30809,-4.770695 0.3078,-1.949275 0.46168,-4.373095 0.46168,-7.271462 v -8.156347 h 17.96706 v 27.123705 h -3.19329 V 30.223022 h -11.84979 v 6.23268 c 0,3.770388 -0.3078,6.886728 -0.92336,9.349022 -0.61557,2.436685 -1.52571,4.398826 -2.7316,5.886421 -1.17945,1.487595 -2.61619,2.654661 -4.30902,3.501074 z m 37.90465,-0.23084 c -2.94922,0 -5.28407,-0.859277 -7.00215,-2.577714 -1.71806,-1.744165 -2.57771,-4.103782 -2.57771,-7.079094 0,-1.923668 0.38473,-3.616495 1.1542,-5.078481 0.76948,-1.487596 1.82147,-2.629052 3.15482,-3.424128 1.35979,-0.820804 2.92398,-1.231146 4.69374,-1.231146 2.53925,0 4.52664,0.820805 5.96337,2.462294 1.43674,1.615879 2.15451,3.847333 2.15451,6.69436 v 1.192674 h -14.08123 c 0.10219,2.128898 0.71775,3.757522 1.84671,4.886115 1.12896,1.102862 2.69313,1.654353 4.69374,1.654353 1.12896,0 2.20621,-0.166758 3.23177,-0.500154 1.02555,-0.359125 2.00061,-0.936224 2.92397,-1.731299 l 1.07725,2.19298 c -0.84641,0.795075 -1.92367,1.423513 -3.23176,1.885194 -1.30809,0.43607 -2.64143,0.654046 -4.00123,0.654046 z m -0.50015,-17.082162 c -1.76978,0 -3.16804,0.551491 -4.19359,1.654353 -1.02556,1.102861 -1.62912,2.552105 -1.80824,4.347487 h 11.34963 c -0.077,-1.898058 -0.5771,-3.372789 -1.50047,-4.424434 -0.89811,-1.051645 -2.17974,-1.577406 -3.84733,-1.577406 z m 12.88856,16.735902 V 35.917076 h 3.11635 v 7.771615 h 10.19544 v -7.771615 h 3.11634 v 18.698043 h -3.11634 v -8.387188 h -10.19544 v 8.387188 z m 20.54117,5.001533 v -7.502301 h 1.96213 c 0.89811,-1.308092 1.53894,-2.808554 1.92368,-4.501381 0.38473,-1.718435 0.5771,-3.783251 0.5771,-6.194207 v -5.501687 h 13.23482 v 16.197275 h 2.96245 v 7.502301 h -2.69313 v -5.001533 h -15.31239 v 5.001533 z m 4.96307,-7.502301 h 9.77222 V 38.379369 h -7.50231 v 3.578022 c 0,1.923666 -0.19236,3.783251 -0.5771,5.578634 -0.38473,1.795382 -0.9486,3.32157 -1.69281,4.578326 z"
     fill="#000000"
     id="path6"
     style="stroke-width:1.20229" />
</svg>
